<svg xmlns="http://www.w3.org/2000/svg" viewBox="0 0 1024 1024"><defs><style>.cls-1,.cls-2,.cls-4{fill:none;stroke:#3f3f3f;stroke-miterlimit:10;}.cls-1{stroke-width:32px;}.cls-2{stroke-width:12px;}.cls-3{fill:#3f3f3f;}.cls-4{stroke-width:4px;}.cls-5{fill:#f91077;}</style></defs><title>logotype</title><g id="Layer_5" data-name="Layer 5"><rect class="cls-1" x="308" y="206" width="584" height="584" rx="99.36"/><rect class="cls-2" x="16.14" y="496.82" width="294" height="293.12" rx="36.75"/><path class="cls-3" d="M212.19,636.74a20.68,20.68,0,0,1-4.05,1.8q-2,.6-4.35,1.5a53.86,53.86,0,0,1,7,4.5,21.73,21.73,0,0,1,5.25,5.7,42.08,42.08,0,0,1,5.56,13.65,88.6,88.6,0,0,1,1.94,20v13.5a12.19,12.19,0,0,0-.29,3.3q0,16.8,8.4,16.8,8.69,0,8.7-21V688l-.31-7.2v-4.2q0-4.5.31-7.8a17.75,17.75,0,0,1,1.19-5.4q3-7.2,13.5-7.2,15.32,0,15.31,16.2v2.25a35.51,35.51,0,0,1-.31,4.35c0,1-.05,2.05-.14,3.15s-.15,2-.15,2.85a48.06,48.06,0,0,0-.31,4.8v9.9a10.48,10.48,0,0,1,.31,2.55v2.55q0,18.9-10.65,29.25t-29.85,10.35q-38.72,0-38.71-38.4v-8.7l.31-9.6v-6.3q0-17.7-6-22.2-6-5.7-27-5.7h-26.7q-4.22,0-4.21,7.2v22.2q0,10.5.16,16.35c.09,3.9.15,6.35.15,7.35v-.3q2.38,11.4,9.6,11.4a20.88,20.88,0,0,0,5.09-.6,46.36,46.36,0,0,1,8.41-.9q14.09,0,14.09,13.8,0,14.4-18,14.4a2.65,2.65,0,0,0-1.19-.3,12.51,12.51,0,0,1-3-.3L127,741.74q-4.8-.6-8.4-.9c-2.39-.2-4.7-.3-6.89-.3a33.07,33.07,0,0,0-5.25.6q-3.47.6-7.21,1.2t-7.5,1.35q-3.75.75-6.44,1A36,36,0,0,0,80,745a23.29,23.29,0,0,1-6.75-.6q-17.42,0-17.4-14.4,0-13.2,13.8-13.2a4.13,4.13,0,0,1,.89.15,8,8,0,0,0,1.81.15q.89,0,2.4.15a29.83,29.83,0,0,0,3,.15,30.13,30.13,0,0,0,3,.45,29.83,29.83,0,0,0,3,.15q9.58,0,9.6-17.4V585.14q0-16.8-9.31-17.7c0,.2-.89.35-2.69.45a31.23,31.23,0,0,0-4.2.45q-1.81.3-3.9.45t-3.6.15a13.45,13.45,0,0,1-9.61-4.05,12.41,12.41,0,0,1-4.19-9.15q0-14.1,17.69-14.1h2a10.4,10.4,0,0,1,2.54.3q3.6.3,7.36.75t7,.75q3,.3,6.46.45t7.64.15q4.2,0,8.56-.15t9.44-.45h1.81l21.9-1.2c3.6-.2,7.14-.35,10.65-.45s6.75-.15,9.75-.15q68.09,0,68.1,52.5Q236.79,625,212.19,636.74Zm-54.9-10.5a116.62,116.62,0,0,0,19.94-1.5,43.26,43.26,0,0,0,14.25-4.8q12-6.6,12-24.3,0-28.8-40.19-28.8-22.81,0-30.31,3.3-5.7,2.4-5.69,10.8c0,1.4-.06,2.9-.15,4.5s-.16,3-.16,4.2v33.3c0,1.6.16,2.55.46,2.85s1.24.45,2.85.45Z"/><rect class="cls-4" x="309.78" y="789.53" width="213" height="215" rx="13.87"/><path class="cls-3" d="M369.31,854.57q0-12.54-7-13a4.08,4.08,0,0,1-1.65.22,16.23,16.23,0,0,0-2.53.22h.22a40.65,40.65,0,0,1-6.38.66q-10.11,0-10.12-9.68,0-10.34,13.2-10.34h1.43a8,8,0,0,1,1.87.22l11,1.54q3.09.45,6.27.66t6.71.22a103.62,103.62,0,0,0,11.44-.66l13.86-1.54c1.32-.14,2.9-.25,4.73-.33s3.85-.11,6.05-.11q20.25,0,33.66,5.72,18,7.71,28.38,26t10.34,42.9A90.83,90.83,0,0,1,482.39,936a60.69,60.69,0,0,1-9.68,14.74A58.78,58.78,0,0,1,460,961.49,78.07,78.07,0,0,1,441,968.75a92.25,92.25,0,0,1-22.44,2.64c-1.61,0-3.22,0-4.84-.11s-3.22-.18-4.84-.33l-14.52-1.32q-7.26-.66-15.18-.66a73.49,73.49,0,0,0-11,.66l-10.12,1.54a5.11,5.11,0,0,0-1.54.22h-2q-12.75,0-12.76-10.34a9.31,9.31,0,0,1,3-7.15,10.18,10.18,0,0,1,7.15-2.75,37.59,37.59,0,0,1,6.38.66,14.72,14.72,0,0,1,1.76.11,14.93,14.93,0,0,0,2,.11q7.26,0,7.26-12.76Zm24.86,87.12q0,7.48,6.82,9.24,2.2.66,16.94.66a53.85,53.85,0,0,0,20-3.41,35.85,35.85,0,0,0,13.86-9.35,56.72,56.72,0,0,0,9.57-18.26,75.37,75.37,0,0,0,3.41-23.32q0-20.24-7.59-34.1T436,845.33q-8.58-2.64-21.34-2.64-15.18,0-18.7,1.76v-.22q-1.76,1.11-1.76,8.14Z"/></g><g id="Layer_2" data-name="Layer 2"><path class="cls-5" d="M393,470.09q1.56,1.83,3,3.72l-3.28-4.25a99.62,99.62,0,0,1,12.65,21.82l-2.11-5a126.46,126.46,0,0,1,8.43,31.77l-.75-5.58a179.35,179.35,0,0,1-.35,47l.75-5.58a251.54,251.54,0,0,1-17.51,63.68l2.12-5a259.5,259.5,0,0,1-33.4,57.3l3.29-4.25a255,255,0,0,1-22.79,25.7l-3.29,4.25a15.73,15.73,0,0,0-2.49,7.81,10.57,10.57,0,0,0,0,5.58,15.69,15.69,0,0,0,2.49,7.81,25.1,25.1,0,0,0,7.54,7.54,15.69,15.69,0,0,0,7.8,2.49,15.93,15.93,0,0,0,8.38-.38,190.41,190.41,0,0,1,38.09-8.8l-5.59.75c18.33-2.43,36.83-3,55.28-3.76,18.78-.79,37.5-2.13,56.14-4.6a604.07,604.07,0,0,0,60.76-10.94,555.6,555.6,0,0,0,54.41-16c19.63-6.86,39.19-14.58,59.9-17.45l-5.58.75a103.63,103.63,0,0,1,24.45-.52,23.34,23.34,0,0,0,14.84-6.15c3.65-3.64,6.39-9.62,6.16-14.85-.25-5.43-2-11.06-6.16-14.85l-4.25-3.28A20.84,20.84,0,0,0,701.34,624c-14.24-1.48-28.84.43-42.73,3.61-12.49,2.86-24.6,7.1-36.65,11.37-24.66,8.76-49.56,16.43-75.14,22q-21.69,4.72-43.71,7.7l5.59-.75c-19.92,2.67-39.92,4.05-60,4.87-21.41.88-42.74,1.9-63.94,5.22a183,183,0,0,0-32.46,8l20.43,35.1a279,279,0,0,0,38.43-47.43,283,283,0,0,0,26.91-54.26,249.67,249.67,0,0,0,13.69-53.72,231.06,231.06,0,0,0,2.56-32.06,191.29,191.29,0,0,0-2.87-31.41,141.78,141.78,0,0,0-10.23-33,114.51,114.51,0,0,0-18.57-28.83c-3.34-3.9-9.88-6.15-14.85-6.15-5.15,0-11.3,2.29-14.84,6.15s-6.41,9.26-6.16,14.85l.75,5.59a21,21,0,0,0,5.41,9.26Z"/><path class="cls-5" d="M589.3,264.82q30.38,42.36,57,87.24t49.2,91.85q12.74,26.5,24.18,53.61l-2.12-5c5,11.89,9.78,23.87,14.47,35.89,5.15,13.16,10.36,26.42,17.06,38.88a131.15,131.15,0,0,0,11.43,17.84,16,16,0,0,0,5.41,5.89,18.83,18.83,0,0,0,15.52,4.13,15.53,15.53,0,0,0,7.81-2.49c4.48-2.89,8.43-7.19,9.65-12.55l.75-5.58a20.87,20.87,0,0,0-2.87-10.6c-8.55-11.12-14.82-23.71-20.28-36.57l2.12,5c-4-9.47-7.6-19.1-11.41-28.66-4.47-11.24-9.13-22.41-13.9-33.54q-12.43-29-26.4-57.39t-29.39-55.92q-15.42-27.57-32.28-54.3T630.13,250l-4.56-6.41a20.21,20.21,0,0,0-20.93-10,15.63,15.63,0,0,0-7.81,2.49c-4.48,2.89-8.43,7.2-9.65,12.55s-1.13,11.65,2.12,16.18Z"/><path class="cls-5" d="M689.74,183c21.94-6.29,43.82-12.82,65.56-19.78s43.39-14.36,64.78-22.39Q854.21,128,887.46,113c20.66-9.39,40.95-19.59,60.7-30.77a628.51,628.51,0,0,0,57.35-36.56c2.27-1.64,4.52-3.28,6.77-5l-31.6-18.13Q973,86.34,969.79,150.52T967.87,278.9q.72,36,2.85,71.93c.33,5.58,2.11,10.82,6.15,14.85,3.64,3.65,9.62,6.39,14.85,6.15,5.43-.24,11.06-2,14.85-6.15,3.64-4,6.48-9.29,6.15-14.85q-3.79-64.09-3.11-128.35t5.86-128.26q2.91-35.88,7.21-71.63a21,21,0,0,0-31.6-18.13A619.71,619.71,0,0,1,936,40.79C916.88,52,897.26,62.2,877.27,71.63q-16.86,8-34,15.19l5-2.12c-21.47,9-43.26,17.33-65.24,25s-44.26,14.85-66.59,21.63q-18.87,5.73-37.83,11.14A21.85,21.85,0,0,0,666,152.15c-2.63,4.5-3.75,11.13-2.11,16.18s4.79,10,9.65,12.55A21.7,21.7,0,0,0,689.74,183Z"/></g></svg>